<svg width="81" height="71" viewBox="0 0 81 71" fill="none" xmlns="http://www.w3.org/2000/svg">
<path fill-rule="evenodd" clip-rule="evenodd" d="M40.5 0C18.1339 0 0 15.8951 0 35.5C0 55.1049 18.1339 71 40.5 71C62.8661 71 81 55.1049 81 35.5C81 15.8951 62.8661 0 40.5 0ZM40.5 5.91667C59.1097 5.91667 74.25 19.1877 74.25 35.5C74.25 51.8122 59.1097 65.0833 40.5 65.0833C21.8903 65.0833 6.75 51.8122 6.75 35.5C6.75 19.1877 21.8903 5.91667 40.5 5.91667ZM57.861 48.8125H23.139C21.546 48.8125 20.25 47.6765 20.25 46.2802V26.199C20.25 24.8027 21.546 23.6667 23.139 23.6667H57.861C59.454 23.6667 60.75 24.8027 60.75 26.199V46.2802C60.75 47.6765 59.454 48.8125 57.861 48.8125ZM40.5 39.8103L24.7354 30.2223L24.7016 47.3333H56.2309V30.2223L40.5 39.8103ZM55.4681 25.1458H25.4475L40.5 34.361C40.5 34.361 51.0502 27.8438 55.4681 25.1458Z" fill="#C68508"/>
</svg>
