<svg width="120" height="110" viewBox="0 0 120 110" fill="none" xmlns="http://www.w3.org/2000/svg">
<path d="M81.15 32.5508C71.14 31.9275 48.84 31.9321 38.845 32.5508C28.02 33.2292 26.75 39.2242 26.665 55C26.75 70.7483 28.015 76.7708 38.85 77.4492C48.845 78.0679 71.145 78.0725 81.155 77.4492C91.98 76.7708 93.255 70.7713 93.34 55C93.25 39.2517 91.985 33.2292 81.15 32.5508V32.5508ZM50 65.1842V44.8158L73.89 54.9817L50 65.1842ZM60 9.16667C87.57 9.16667 110 29.7275 110 55C110 80.2725 87.57 100.833 60 100.833C32.43 100.833 10 80.2725 10 55C10 29.7275 32.43 9.16667 60 9.16667V9.16667ZM60 0C26.865 0 0 24.6263 0 55C0 85.3738 26.865 110 60 110C93.135 110 120 85.3738 120 55C120 24.6263 93.135 0 60 0V0Z" fill="#C68508"/>
</svg>
