<svg width="95" height="83" viewBox="0 0 95 83" fill="none" xmlns="http://www.w3.org/2000/svg">
<path d="M47.5 6.91667C69.3262 6.91667 87.0833 22.4307 87.0833 41.5C87.0833 60.5692 69.3262 76.0833 47.5 76.0833C25.6737 76.0833 7.91667 60.5692 7.91667 41.5C7.91667 22.4307 25.6737 6.91667 47.5 6.91667ZM47.5 0C21.2681 0 0 18.5816 0 41.5C0 64.4184 21.2681 83 47.5 83C73.7319 83 95 64.4184 95 41.5C95 18.5816 73.7319 0 47.5 0ZM47.5 24.4919C53.8412 24.4919 54.5933 24.5127 57.099 24.613C63.5392 24.8689 66.5396 27.5353 66.8365 33.117C66.9473 35.3061 66.971 35.9597 66.971 41.5C66.971 47.0402 66.9473 47.6973 66.8365 49.883C66.5396 55.4613 63.5431 58.1346 57.099 58.3905C54.5933 58.4873 53.8452 58.5115 47.5 58.5115C41.1587 58.5115 40.4067 58.4908 37.905 58.3905C31.4529 58.1311 28.4644 55.4544 28.1675 49.883C28.0567 47.6973 28.029 47.0402 28.029 41.5C28.029 35.9597 28.0567 35.3027 28.1675 33.117C28.4604 27.5318 31.4608 24.8654 37.905 24.6095C40.4067 24.5092 41.1587 24.4919 47.5 24.4919V24.4919ZM47.5 20.75C41.0479 20.75 40.2444 20.7742 37.7071 20.878C29.0779 21.2238 24.2883 25.4049 23.8925 32.9441C23.7777 35.1609 23.75 35.8664 23.75 41.5C23.75 47.1371 23.7777 47.8426 23.8925 50.0559C24.2883 57.5916 29.0779 61.7797 37.7071 62.1255C40.2444 62.2258 41.0479 62.25 47.5 62.25C53.9521 62.25 54.7596 62.2258 57.2969 62.1255C65.9102 61.7797 70.7196 57.5985 71.1075 50.0559C71.2223 47.8426 71.25 47.1371 71.25 41.5C71.25 35.8664 71.2223 35.1609 71.1075 32.9441C70.7196 25.4153 65.926 21.2203 57.2969 20.878C54.7596 20.7742 53.9521 20.75 47.5 20.75V20.75ZM47.5 30.8449C40.7669 30.8449 35.3044 35.6139 35.3044 41.5C35.3044 47.3861 40.7669 52.1551 47.5 52.1551C54.2331 52.1551 59.6956 47.3861 59.6956 41.5C59.6956 35.6174 54.2331 30.8449 47.5 30.8449ZM47.5 48.4167C43.126 48.4167 39.5833 45.3215 39.5833 41.5C39.5833 37.682 43.126 34.5833 47.5 34.5833C51.87 34.5833 55.4206 37.6785 55.4206 41.5C55.4206 45.3215 51.87 48.4167 47.5 48.4167ZM60.1746 27.9364C58.6031 27.9364 57.3246 29.05 57.3246 30.4264C57.3246 31.7994 58.5992 32.9164 60.1746 32.9164C61.75 32.9164 63.0285 31.8028 63.0285 30.4264C63.0285 29.05 61.754 27.9364 60.1746 27.9364Z" fill="#C68508"/>
</svg>
