<svg width="74" height="65" viewBox="0 0 74 65" fill="none" xmlns="http://www.w3.org/2000/svg">
<path fill-rule="evenodd" clip-rule="evenodd" d="M49.3333 18.9583H74V65H0V0H49.3333V18.9583ZM21.5833 51.4583H15.4167V62.2917H21.5833V51.4583ZM33.9167 51.4583H27.75V62.2917H33.9167V51.4583ZM55.5 51.4583H49.3333V62.2917H55.5V51.4583ZM67.8333 24.375H49.3333V46.0417H61.6667V59.5833H67.8333V24.375ZM43.1667 5.41667H6.16667V59.5833H9.25V46.0417H40.0833V59.5833H43.1667V5.41667ZM18.5 40.625H12.3333V35.2083H18.5V40.625ZM27.75 40.625H21.5833V35.2083H27.75V40.625ZM37 40.625H30.8333V35.2083H37V40.625ZM61.6667 35.2083V40.625H55.5V35.2083H61.6667ZM18.5 32.5H12.3333V27.0833H18.5V32.5ZM27.75 32.5H21.5833V27.0833H27.75V32.5ZM37 32.5H30.8333V27.0833H37V32.5ZM55.5 27.0833H61.6667V32.5H55.5V27.0833ZM18.5 24.375H12.3333V18.9583H18.5V24.375ZM27.75 24.375H21.5833V18.9583H27.75V24.375ZM37 24.375H30.8333V18.9583H37V24.375ZM18.5 16.25H12.3333V10.8333H18.5V16.25ZM27.75 16.25H21.5833V10.8333H27.75V16.25ZM37 16.25H30.8333V10.8333H37V16.25Z" fill="#C68508"/>
</svg>
