<svg width="82" height="66" viewBox="0 0 82 66" fill="none" xmlns="http://www.w3.org/2000/svg">
<path d="M41 5.5C59.8395 5.5 75.1667 17.8365 75.1667 33C75.1667 48.1635 59.8395 60.5 41 60.5C22.1605 60.5 6.83333 48.1635 6.83333 33C6.83333 17.8365 22.1605 5.5 41 5.5ZM41 0C18.3578 0 0 14.7758 0 33C0 51.2242 18.3578 66 41 66C63.6423 66 82 51.2242 82 33C82 14.7758 63.6423 0 41 0ZM34.1667 27.5H27.3333V33H34.1667V49.5H44.4167V33H50.635L51.25 27.5H44.4167V25.2092C44.4167 23.8947 44.7447 23.375 46.3232 23.375H51.25V16.5H43.0363C36.8932 16.5 34.1667 18.678 34.1667 22.847V27.5Z" fill="#C68508"/>
</svg>
