<svg width="127" height="117" viewBox="0 0 127 117" fill="none" xmlns="http://www.w3.org/2000/svg">
<path d="M63.5 9.75C92.6782 9.75 116.417 31.6193 116.417 58.5C116.417 85.3807 92.6782 107.25 63.5 107.25C34.3217 107.25 10.5833 85.3807 10.5833 58.5C10.5833 31.6193 34.3217 9.75 63.5 9.75ZM63.5 0C28.4321 0 0 26.1934 0 58.5C0 90.8066 28.4321 117 63.5 117C98.5679 117 127 90.8066 127 58.5C127 26.1934 98.5679 0 63.5 0ZM31.9035 87.75L36.3696 72.7301C33.618 68.3329 32.168 63.3458 32.168 58.2368C32.1733 42.2516 46.2862 29.25 63.6323 29.25C72.0513 29.2549 79.9518 32.2725 85.889 37.752C91.8316 43.2315 95.1018 50.5148 95.0965 58.2611C95.0913 74.2463 80.9731 87.2479 63.6323 87.2479C58.3671 87.2479 53.176 86.0291 48.5828 83.7184L31.9035 87.75V87.75ZM49.3554 78.4729C53.7898 80.8958 58.0231 82.3534 63.6217 82.3534C78.0362 82.3534 89.7784 71.5455 89.7837 58.2611C89.789 44.9475 78.0997 34.1543 63.6429 34.1494C49.2178 34.1494 37.4862 44.9572 37.4809 58.2416C37.4809 63.6626 39.206 67.7284 42.1005 71.9745L39.46 80.8665L49.3554 78.4729V78.4729ZM79.4861 65.1544C79.2903 64.8521 78.7665 64.6717 77.978 64.3061C77.1895 63.9454 73.3266 62.1904 72.607 61.9515C71.8873 61.7078 71.3634 61.5907 70.8395 62.3122C70.3157 63.0386 68.8075 64.6669 68.3525 65.1544C67.8921 65.637 67.437 65.7004 66.6485 65.3348C65.8601 64.974 63.3307 64.2086 60.325 61.7419C57.9861 59.8211 56.4092 57.447 55.9488 56.7255C55.4884 55.9991 55.9012 55.6091 56.2927 55.2484L57.4728 53.9809L58.2612 52.7719C58.5258 52.2892 58.3935 51.8651 58.1977 51.5044L55.7742 46.1272C55.1339 44.7135 54.4883 44.9085 54.0068 44.8841L52.4933 44.85C51.9695 44.85 51.1175 45.0304 50.3978 45.7567C49.6782 46.4831 47.6462 48.2333 47.6462 51.8018C47.6462 55.3654 50.4613 58.812 50.8582 59.2946C51.2498 59.7773 56.4039 67.0946 64.2885 70.2293C66.1617 70.9751 67.6275 71.4236 68.7705 71.7551C70.6543 72.306 72.3688 72.228 73.7235 72.0427C75.2316 71.8331 78.3749 70.2926 79.031 68.601C79.6819 66.9045 79.6819 65.4566 79.4861 65.1544V65.1544Z" fill="#C68508"/>
</svg>
